<mxfile host="app.diagrams.net" modified="2023-06-22T16:12:55.480Z" agent="Mozilla/5.0 (Windows NT 10.0; Win64; x64) AppleWebKit/537.36 (KHTML, like Gecko) Chrome/114.0.0.0 Safari/537.36" version="21.5.0" etag="2qx5Mt3wuGwPOL-uivd1" type="github">
  <diagram name="第 1 页" id="ug8OcABAm3F3g6Z-oZ7M">
    <mxGraphModel>
      <root>
        <mxCell id="0" />
        <mxCell id="1" parent="0" />
      </root>
    </mxGraphModel>
  </diagram>
</mxfile>
